<?xml version="1.0" encoding="UTF-8"?>
<svg viewBox="0 0 170 28" xmlns="http://www.w3.org/2000/svg">
<path d="m20.613 1.6717c1.4573 0 2.8549 0.58431 3.8853 1.6244 1.0305 1.0401 1.6094 2.4508 1.6094 3.9217-4e-3 1.4696-0.5842 2.878-1.6138 3.9172s-2.4249 1.6248-3.8809 1.6289c-0.7223 0.0022-1.4378-0.1397-2.1055-0.4176-0.6678-0.2779-1.2745-0.6863-1.7852-1.2017-0.5108-0.5155-0.9156-1.1277-1.1911-1.8016-0.2755-0.67389-0.4163-1.3961-0.4143-2.1251-2e-3 -0.72902 0.1388-1.4512 0.4143-2.1251 0.2755-0.6739 0.6803-1.2862 1.1911-1.8016 0.5107-0.51543 1.1174-0.92384 1.7852-1.2018 0.6677-0.27791 1.3832-0.41984 2.1055-0.41761z" clip-rule="evenodd" fill="#F15822" fill-rule="evenodd"/>
<path d="m27.739 27.951c-0.9116-4.699-0.4551-10.73-5.4697-12.546-3.8162-1.3809-7.5113 2.2518-7.1035 5.8129 0.0473 0.4847 0.192 1.2348 0.4077 1.7195 1.968 4.0682 7.9192 4.1413 12.166 5.0137z" clip-rule="evenodd" fill="#005D82" fill-rule="evenodd"/>
<path d="m0 0c0.98398 4.6751 0.6249 10.73 5.6645 12.474 3.8385 1.3317 7.4863-2.3741 7.0284-5.91-0.0696-0.48465-0.1907-1.2362-0.4314-1.7195-2.0376-4.0458-8.0124-4.0219-12.26-4.8451" clip-rule="evenodd" fill="#55C5CF" fill-rule="evenodd"/>
<path d="m0 27.903c4.6555-0.9216 10.654-0.51 12.43-5.5714 1.3681-3.8519-2.2547-7.5577-5.7828-7.1447-0.48016 0.0478-1.247 0.1939-1.7035 0.4116-4.0556 2.0341-4.1029 8.041-4.9436 12.303" clip-rule="evenodd" fill="#005D82" fill-rule="evenodd"/>
<path d="m36.21 7.3792h2.3326v4.095c0.2825-0.6392 0.636-1.2545 1.0605-1.7982 0.4129-0.53771 0.8966-1.016 1.4377-1.4216 0.5428-0.40177 1.1301-0.68694 1.7912-0.89906 0.6361-0.21353 1.3431-0.28377 2.0738-0.28377v2.5089h-0.1893c-0.849 0-1.6493 0.14188-2.4036 0.44949-0.7543 0.3091-1.414 0.7586-1.9791 1.3739-0.5664 0.6153-1.0132 1.3486-1.3194 2.2491-0.3298 0.899-0.4955 1.9414-0.4955 3.1017v6.2513h-2.3326v-15.627h0.0237zm16.612 16.052c-1.0168 0.0086-2.0253-0.1856-2.9676-0.5716-0.9422-0.386-1.7996-0.956-2.5229-1.6775-0.7235-0.7435-1.2994-1.6199-1.6966-2.582-0.4231-0.9932-0.636-2.1072-0.636-3.3153v-0.0702c0-1.1365 0.1893-2.2013 0.5665-3.1959 0.353-0.9511 0.8804-1.8265 1.5546-2.5806 0.6799-0.76197 1.5127-1.3692 2.443-1.7814 0.9303-0.41223 1.9369-0.61999 2.9528-0.60949 1.1552 0 2.1684 0.21212 3.087 0.66306 0.9185 0.42564 1.6729 1.0171 2.3103 1.7756 0.6361 0.75721 1.1065 1.6338 1.4127 2.6269 0.3298 0.9946 0.4718 2.0847 0.4718 3.2212v0.4018c0 0.0955 0 0.2135-0.0237 0.3554h-12.371c0.071 0.8527 0.2825 1.6099 0.6124 2.249 0.3298 0.6631 0.7306 1.2081 1.2247 1.6577 0.4955 0.4495 1.0619 0.8049 1.6743 1.0409 0.6124 0.2374 1.2958 0.3554 2.0042 0.3554 1.0828 0 2.025-0.2121 2.803-0.6153 0.7897-0.4155 1.5063-0.9594 2.121-1.6098l1.4377 1.3022c-0.7508 0.8786-1.6629 1.6022-2.6861 2.131-1.0382 0.5437-2.2866 0.8289-3.7717 0.8289zm4.572-9.0679c-0.0626-0.6955-0.2133-1.3801-0.4482-2.0369-0.2352-0.6392-0.5428-1.2082-0.9659-1.704-0.4398-0.5151-0.9864-0.92626-1.6012-1.2045-0.6147-0.2782-1.2825-0.41662-1.9561-0.40546-0.6834 0-1.3208 0.14048-1.8859 0.40177-0.5792 0.26315-1.0999 0.64155-1.5309 1.1126-0.4548 0.4935-0.822 1.0623-1.0856 1.6816-0.2811 0.6391-0.4704 1.3486-0.5414 2.131h10.015v0.0239zm4.6193-6.9846h2.3326v2.7225c0.5177-0.85272 1.2011-1.5621 2.05-2.1774 0.849-0.59282 1.9318-0.90046 3.2985-0.90046 0.9423 0 1.7912 0.14188 2.5219 0.44953 0.7307 0.30905 1.3667 0.7347 1.8608 1.2784 0.5191 0.54506 0.8963 1.2081 1.1788 1.9892 0.2739 0.8237 0.4093 1.6878 0.4009 2.5567v9.7309h-2.334v-9.1395c0-1.4666-0.3772-2.6031-1.1079-3.4558-0.7543-0.85269-1.8148-1.2783-3.2052-1.2783-0.6597 0-1.2721 0.118-1.8608 0.35541-0.5662 0.22867-1.0787 0.57423-1.5049 1.0145-0.4261 0.4402-0.7564 0.9655-0.9697 1.5422-0.2411 0.6424-0.361 1.3247-0.3535 2.0116v8.9977h-2.3326v-15.697h0.0251zm16.801 0h2.3326v2.627c0.2589-0.37933 0.5428-0.75722 0.8712-1.1126 0.3062-0.354 0.6597-0.68553 1.0606-0.94682 0.4008-0.25989 0.8489-0.49729 1.3667-0.66306 0.4954-0.16576 1.0842-0.236 1.7439-0.236 1.272 0 2.3103 0.30765 3.1342 0.89906 0.8239 0.59282 1.4377 1.3486 1.8608 2.2252 0.2839-0.42562 0.5901-0.8288 0.9436-1.2081 0.3535-0.37789 0.753-0.70941 1.2011-0.99318 0.4634-0.28717 0.9628-0.51019 1.485-0.66306 0.5428-0.16576 1.1775-0.236 1.8608-0.236 1.8149 0 3.2289 0.56753 4.266 1.6801 1.037 1.1126 1.531 2.6761 1.531 4.6175v9.7071h-2.333v-9.1873c0-1.5144-0.3534-2.6972-1.0604-3.5035-0.707-0.82887-1.6965-1.2306-2.9686-1.2306-0.5887 0-1.1315 0.09412-1.6493 0.30765-0.5191 0.21212-0.9895 0.51977-1.3667 0.94679-0.4131 0.4394-0.7266 0.9643-0.9185 1.5383-0.2244 0.6632-0.3364 1.3599-0.3313 2.0608v9.0679h-2.3326v-9.2351c0-1.468-0.3535-2.6283-1.0605-3.4557-0.707-0.82887-1.6966-1.232-2.945-1.232-0.636 0-1.2025 0.118-1.7202 0.35541-0.5263 0.24054-0.9932 0.59613-1.3667 1.0409-0.4038 0.4556-0.7158 0.9862-0.9186 1.5621-0.224 0.6386-0.3356 1.3118-0.3299 1.9892v8.9738h-2.3562v-15.696zm34.002 16.052c-1.178 0-2.238-0.2136-3.229-0.6631-0.959-0.4123-1.831-1.007-2.568-1.7518-0.734-0.7351-1.311-1.6137-1.697-2.5819-0.408-0.9983-0.616-2.0683-0.612-3.1482v-0.0702c0-1.114 0.212-2.1549 0.612-3.1495 0.386-0.9751 0.964-1.8611 1.698-2.6045 0.734-0.76532 1.616-1.3698 2.592-1.7756 1.036-0.44196 2.15-0.66751 3.275-0.66305 1.155 0 2.239 0.21352 3.252 0.66305 0.967 0.41191 1.846 1.0065 2.592 1.7518 0.73 0.73327 1.296 1.5874 1.696 2.5806 0.401 0.9707 0.613 2.0369 0.613 3.1495v0.0703c2e-3 1.0801-0.206 2.1502-0.613 3.1495-0.402 0.9657-0.977 1.8485-1.696 2.6045-0.731 0.7571-1.579 1.3486-2.592 1.7756-1.06 0.4495-2.144 0.6631-3.323 0.6631zm0.071-2.1072c0.849 0 1.625-0.1658 2.332-0.4734 0.707-0.3315 1.296-0.7586 1.815-1.3023 0.503-0.5549 0.902-1.1969 1.178-1.895 0.285-0.7391 0.429-1.5261 0.424-2.3193v-0.0716c0-0.8527-0.14-1.6338-0.447-2.3671-0.283-0.7191-0.699-1.3778-1.224-1.9414-0.526-0.5538-1.15-1.0036-1.839-1.3261-0.707-0.33153-1.461-0.47341-2.287-0.47341-0.849 0-1.625 0.16577-2.332 0.47341-0.678 0.30872-1.287 0.75153-1.791 1.3022-0.501 0.5604-0.893 1.2109-1.156 1.9175-0.284 0.7476-0.428 1.5423-0.423 2.3432v0.0717c0 0.8527 0.141 1.6337 0.448 2.367 0.283 0.7347 0.706 1.3739 1.202 1.9189 0.517 0.5437 1.131 0.9693 1.837 1.3023 0.661 0.3315 1.437 0.4734 2.263 0.4734zm10.51-13.945h2.333v2.7225c0.518-0.85272 1.201-1.5621 2.05-2.1774 0.849-0.59282 1.932-0.90046 3.299-0.90046 0.942 0 1.791 0.14188 2.521 0.44953 0.73 0.30905 1.367 0.7347 1.861 1.2784 0.519 0.54506 0.897 1.2081 1.179 1.9892 0.283 0.7585 0.401 1.6098 0.401 2.5567v9.7309h-2.334v-9.1395c0-1.4666-0.376-2.6031-1.107-3.4558-0.754-0.85269-1.814-1.2783-3.205-1.2783-0.66 0-1.272 0.118-1.862 0.35541-0.566 0.22867-1.079 0.57423-1.505 1.0145-0.426 0.4402-0.756 0.9655-0.97 1.5422-0.24 0.6425-0.36 1.3248-0.352 2.0116v8.9977h-2.334v-15.697h0.025zm23.634 16.052c-1.017 0.0086-2.025-0.1856-2.968-0.5716-0.942-0.386-1.799-0.956-2.523-1.6775-0.723-0.7435-1.299-1.6199-1.696-2.582-0.423-0.9932-0.636-2.1072-0.636-3.3153v-0.0702c0-1.1365 0.189-2.2013 0.566-3.1959 0.353-0.9511 0.881-1.8265 1.555-2.5806 0.68-0.76197 1.513-1.3692 2.443-1.7814 0.93-0.41223 1.937-0.61999 2.953-0.60949 1.155 0 2.168 0.21212 3.087 0.66306 0.888 0.41692 1.676 1.0226 2.31 1.7756 0.636 0.75721 1.107 1.6338 1.413 2.6269 0.33 0.9946 0.495 2.0847 0.495 3.2212v0.4018c0 0.0955 0 0.2135-0.024 0.3554h-12.371c0.07 0.8527 0.283 1.6099 0.612 2.249 0.33 0.6631 0.731 1.2081 1.225 1.6577 0.496 0.4495 1.062 0.8049 1.675 1.0409 0.612 0.2374 1.295 0.3554 2.002 0.3554 1.084 0 2.027-0.2121 2.805-0.6153 0.789-0.4155 1.506-0.9594 2.121-1.6098l1.436 1.3022c-0.751 0.8786-1.663 1.6022-2.686 2.131-1.061 0.5437-2.309 0.8289-3.794 0.8289zm4.596-9.0679c-0.067-0.6928-0.209-1.376-0.425-2.0369-0.237-0.6392-0.543-1.2082-0.966-1.704-0.417-0.4885-0.931-0.88367-1.508-1.1604-0.649-0.30611-1.358-0.4598-2.074-0.44953-0.682 0-1.32 0.14048-1.885 0.40177-0.579 0.26315-1.1 0.64155-1.531 1.1126-0.454 0.4935-0.822 1.0623-1.085 1.6816-0.283 0.6391-0.471 1.3486-0.542 2.131h10.016v0.0239zm15.528-6.9846h2.474l-6.55 16.194c-0.661 1.6099-1.414 2.7703-2.215 3.4333-0.826 0.6617-1.815 0.9932-2.969 0.9932-0.636 0-1.225-0.0702-1.744-0.1882-0.543-0.149-1.072-0.3474-1.579-0.5928l0.779-1.8698c0.376 0.2121 0.752 0.3554 1.13 0.4495 0.376 0.0941 0.8 0.1419 1.319 0.1419 0.707 0 1.296-0.2135 1.792-0.6392 0.47-0.4256 0.966-1.1842 1.414-2.2968l-7.094-15.602h2.569l5.678 13.069 4.997-13.093h-1e-3z" fill="#005D82"/>
</svg>
